<?xml version="1.0" standalone="no"?><!DOCTYPE svg PUBLIC "-//W3C//DTD SVG 1.1//EN" "http://www.w3.org/Graphics/SVG/1.1/DTD/svg11.dtd"><svg t="1751728355845" class="icon" viewBox="0 0 1024 1024" version="1.1" xmlns="http://www.w3.org/2000/svg" p-id="8708" xmlns:xlink="http://www.w3.org/1999/xlink" width="200" height="200"><path d="M368.64 537.6h212.992c14.336 0 26.624-11.776 26.624-26.624s-11.776-26.624-26.624-26.624H368.64c-14.848 0-26.624 11.776-26.624 26.624s11.776 26.624 26.624 26.624z" fill="#515151" p-id="8709"></path><path d="M517.12 80.896c-238.08 0-431.616 167.424-431.616 373.76 0 100.864 45.568 195.072 128 265.728 11.264 9.216 27.648 8.192 37.376-3.072 9.216-11.264 8.192-27.648-3.072-37.376-70.656-60.416-109.568-140.8-109.568-225.28 0-177.152 169.984-321.024 378.88-321.024s378.88 143.872 378.88 321.024-169.984 321.024-378.88 321.024c-7.168 0-14.336 3.072-19.456 8.704-8.704 9.728-13.312 14.336-16.384 17.92-2.048 2.048-3.584 4.096-5.12 5.632l-2.56 2.56c-7.168 7.168-14.336 13.824-31.744 29.184-25.088 18.944-60.416 34.304-98.304 43.52 30.72-43.008 39.936-80.384 30.208-117.76-2.048-6.656-6.144-12.288-12.288-15.872-6.144-4.096-13.312-5.12-19.968-3.072-6.656 2.048-12.288 6.144-15.872 12.288-4.096 6.144-5.12 13.312-3.072 19.968 6.144 22.016-2.048 47.104-25.6 78.848-3.584 4.608-7.68 9.728-12.288 15.36-1.024 1.024-2.56 2.56-4.096 4.608-4.608 5.12-6.656 7.68-7.168 8.704-4.096 4.608-6.656 8.704-9.216 12.288s-3.584 6.656-4.608 10.752c-2.56 10.24 0.512 20.48 8.192 27.648 5.12 4.096 11.776 6.656 17.92 6.656 53.248 0 132.608-19.968 189.44-64 19.456-17.408 27.136-24.576 35.328-32.768l3.072-3.072c3.584-3.584 5.632-6.144 10.24-11.264l4.608-5.12c112.128-2.56 217.088-42.496 295.936-111.616 79.872-70.144 123.904-163.328 123.904-262.144 0-205.312-193.024-372.736-431.104-372.736z" fill="#515151" p-id="8710"></path><path d="M368.64 409.6h298.496c14.336 0 26.624-11.776 26.624-26.624s-11.776-26.624-26.624-26.624H368.64c-14.848 0-26.624 11.776-26.624 26.624s11.776 26.624 26.624 26.624z" fill="#515151" p-id="8711"></path></svg>